<?xml version="1.0" standalone="no"?>
<!DOCTYPE svg PUBLIC "-//W3C//DTD SVG 20010904//EN"
 "http://www.w3.org/TR/2001/REC-SVG-20010904/DTD/svg10.dtd">
<svg version="1.0" xmlns="http://www.w3.org/2000/svg"
 width="512.000000pt" height="512.000000pt" viewBox="0 0 512.000000 512.000000"
 preserveAspectRatio="xMidYMid meet">
<metadata>
Created by potrace 1.14, written by Peter Selinger 2001-2017
</metadata>
<g transform="translate(0.000000,512.000000) scale(0.100000,-0.100000)"
fill="#000000" stroke="none">
<path d="M2338 5109 c11 -15 8 -17 -28 -21 -22 -2 -42 1 -44 7 -2 5 -5 4 -5
-4 -1 -10 -4 -11 -15 -2 -11 9 -16 9 -22 0 -5 -8 -3 -9 6 -4 9 5 11 4 6 -4 -4
-6 -12 -9 -17 -5 -6 3 -25 7 -43 8 -29 3 -33 1 -28 -18 5 -20 5 -20 -12 -3
-20 19 -31 23 -20 6 4 -7 1 -10 -7 -7 -8 3 -22 1 -33 -4 -12 -7 -16 -7 -12 0
4 6 -2 8 -14 5 -11 -3 -17 -10 -13 -16 4 -6 1 -7 -8 -1 -21 13 -38 14 -46 2
-4 -7 -1 -8 8 -3 8 5 10 4 6 0 -12 -14 -41 -15 -49 -2 -6 9 -8 9 -8 0 0 -7 -9
-13 -21 -13 -11 0 -17 -4 -14 -10 3 -5 1 -10 -4 -10 -6 0 -11 4 -11 8 0 5 -6
9 -14 9 -8 0 -12 -6 -9 -14 4 -9 0 -11 -11 -7 -10 4 -16 1 -16 -7 0 -11 -3
-11 -10 1 -9 13 -10 13 -10 0 0 -12 -2 -13 -9 -1 -7 11 -12 10 -27 -8 -10 -11
-23 -21 -29 -21 -5 0 -3 5 5 10 9 6 10 10 3 10 -6 0 -15 -5 -18 -11 -4 -6 -13
-8 -19 -6 -7 3 -18 -3 -24 -14 -7 -11 -18 -16 -27 -13 -19 8 -77 -15 -69 -27
8 -13 -10 -11 -24 3 -9 9 -12 8 -12 -4 0 -11 -6 -15 -20 -11 -12 3 -20 0 -20
-6 0 -7 5 -9 12 -5 7 4 8 3 4 -5 -6 -9 -11 -9 -22 0 -12 10 -13 9 -7 -7 6 -17
5 -17 -10 -5 -12 9 -17 10 -17 2 0 -7 -5 -9 -12 -5 -7 5 -9 2 -6 -7 4 -11 -1
-14 -24 -13 -21 2 -26 -1 -19 -10 7 -8 5 -12 -8 -12 -12 0 -17 6 -14 16 2 8
-3 4 -11 -10 -8 -14 -15 -21 -16 -16 0 4 -9 -2 -21 -15 -11 -13 -18 -18 -14
-11 3 6 1 12 -4 12 -6 0 -11 -4 -11 -10 0 -5 -7 -10 -16 -10 -9 0 -12 -5 -8
-12 4 -6 3 -8 -3 -5 -6 4 -27 -3 -49 -13 -21 -11 -44 -20 -51 -20 -7 0 -10 -7
-7 -15 4 -11 0 -15 -17 -15 -12 0 -19 -3 -16 -7 4 -3 2 -12 -4 -20 -8 -9 -15
-10 -24 -3 -10 8 -15 8 -21 -1 -5 -8 -3 -10 7 -4 11 6 11 5 3 -4 -6 -7 -18
-13 -26 -15 -8 -1 -26 -11 -41 -22 -20 -17 -23 -24 -14 -34 10 -10 8 -10 -10
-1 -19 10 -22 9 -17 -4 5 -11 2 -13 -10 -9 -15 6 -21 -6 -17 -30 1 -5 -6 -3
-15 5 -12 9 -15 9 -10 2 4 -8 2 -13 -4 -13 -6 0 -8 -5 -4 -11 4 -8 1 -8 -13
-1 -15 9 -20 8 -20 -3 0 -8 5 -11 10 -8 6 3 7 1 3 -5 -4 -7 -16 -12 -27 -12
-16 0 -19 -4 -14 -22 6 -18 5 -20 -5 -11 -9 8 -17 7 -31 -5 -10 -8 -15 -20
-12 -25 4 -6 -1 -8 -10 -4 -10 3 -18 2 -18 -3 -1 -6 -2 -15 -3 -22 0 -6 -8
-13 -16 -15 -13 -4 -13 -3 0 7 13 10 13 11 0 7 -8 -2 -15 -10 -15 -18 0 -18
-27 -39 -40 -31 -5 3 -4 -1 3 -10 11 -13 10 -16 -5 -14 -10 0 -17 -4 -16 -11
2 -7 -4 -10 -13 -6 -11 4 -15 0 -12 -13 2 -11 -3 -19 -12 -19 -8 -1 -14 -6
-12 -13 2 -11 -10 -16 -30 -13 -4 0 -5 -6 -2 -14 4 -8 -1 -17 -10 -21 -9 -3
-14 -10 -11 -14 3 -5 -4 -11 -15 -15 -19 -6 -25 -18 -20 -40 1 -5 -1 -7 -5 -3
-9 8 -28 -10 -38 -34 -3 -10 -14 -18 -22 -18 -9 0 -13 -5 -10 -10 4 -6 11 -8
16 -5 5 3 6 -1 2 -10 -4 -11 -8 -13 -13 -5 -5 7 -11 6 -21 -6 -9 -12 -10 -15
-2 -10 7 4 13 5 13 1 0 -3 -11 -10 -25 -15 -22 -8 -24 -13 -15 -29 9 -17 7
-19 -10 -16 -11 2 -18 0 -15 -6 4 -5 1 -9 -4 -9 -6 0 -11 -5 -11 -11 0 -5 5
-7 12 -3 7 4 8 3 4 -5 -4 -6 -11 -9 -16 -6 -5 3 -11 1 -15 -5 -3 -5 0 -10 7
-11 7 0 2 -5 -11 -10 -17 -7 -21 -12 -13 -22 8 -9 6 -16 -9 -25 -11 -7 -18
-16 -15 -20 4 -8 -13 -27 -29 -31 -5 -1 -9 -9 -7 -17 2 -8 -2 -14 -8 -14 -5 0
-10 -5 -10 -11 0 -5 6 -7 12 -3 7 4 1 -4 -14 -19 -16 -15 -28 -37 -28 -52 0
-15 -6 -25 -14 -25 -7 0 -16 -9 -19 -20 -3 -11 -1 -18 4 -14 5 3 9 0 9 -5 0
-6 -5 -11 -11 -11 -6 0 -8 -7 -5 -16 5 -13 4 -14 -7 -6 -10 9 -14 9 -14 -1 -1
-22 -8 -41 -21 -55 -16 -17 -16 -35 1 -27 6 4 3 0 -7 -9 -15 -12 -17 -18 -7
-30 11 -13 9 -15 -9 -11 -13 2 -20 2 -16 -2 3 -3 0 -13 -7 -21 -9 -13 -9 -14
0 -8 19 11 16 -20 -4 -40 -10 -9 -17 -31 -16 -51 0 -24 -5 -37 -20 -44 -12 -7
-16 -14 -9 -18 12 -7 5 -51 -8 -51 -4 0 -6 -11 -5 -25 2 -14 -1 -23 -6 -19 -9
5 -14 -25 -9 -55 1 -8 -4 -12 -14 -8 -10 4 -13 1 -9 -8 3 -8 10 -12 17 -8 6 4
5 -1 -3 -10 -7 -9 -18 -14 -24 -10 -6 3 -7 1 -3 -6 4 -6 11 -9 16 -6 5 3 12 1
15 -5 4 -6 3 -9 -2 -8 -4 2 -9 -1 -10 -6 -1 -5 -7 -13 -15 -17 -8 -6 -9 -12
-3 -16 14 -11 18 -36 4 -28 -7 5 -9 -3 -6 -25 4 -22 1 -33 -9 -37 -12 -4 -12
-8 3 -19 17 -13 17 -14 1 -8 -12 4 -18 1 -18 -10 0 -9 6 -16 13 -17 6 0 3 -4
-8 -9 -11 -5 -15 -9 -10 -9 13 -1 7 -69 -6 -77 -5 -3 -9 -11 -9 -17 0 -7 4 -6
10 3 8 13 10 12 10 -2 0 -10 -6 -18 -12 -18 -9 0 -9 -3 -3 -8 12 -8 14 -47 3
-58 -4 -3 -6 3 -3 14 2 12 1 23 -3 26 -12 7 -10 -198 2 -206 8 -6 8 -8 0 -8
-6 0 -11 -14 -12 -30 0 -20 3 -28 10 -24 7 5 8 2 3 -6 -13 -22 -13 -109 0
-104 13 5 14 -35 1 -55 -7 -11 -5 -13 10 -8 18 7 18 7 0 -8 -14 -11 -16 -15
-5 -15 12 0 12 -2 -1 -10 -12 -8 -12 -10 5 -10 15 0 17 -3 7 -9 -19 -11 -19
-15 -3 -34 11 -14 11 -17 0 -17 -9 -1 -8 -5 5 -15 11 -8 14 -15 8 -15 -17 0
-15 -18 3 -36 9 -9 13 -26 10 -41 -2 -14 1 -35 6 -46 6 -11 7 -17 2 -14 -5 3
-9 -3 -9 -14 0 -13 5 -18 16 -14 12 5 13 4 3 -6 -17 -17 -17 -30 0 -23 9 3 13
-4 13 -21 0 -14 -5 -25 -11 -25 -5 0 -4 -4 4 -9 8 -5 12 -18 8 -30 -3 -12 0
-24 5 -28 7 -4 8 -1 3 7 -5 9 -4 11 4 6 9 -6 9 -11 -1 -24 -8 -9 -8 -13 -2 -9
15 9 24 -15 17 -44 -5 -17 -3 -20 8 -14 11 7 11 5 -1 -11 -8 -10 -10 -16 -6
-12 5 4 15 3 22 -3 10 -8 11 -16 3 -31 -6 -11 -7 -18 -2 -15 5 3 15 -4 23 -16
12 -20 12 -21 -4 -8 -14 12 -16 12 -10 -3 3 -9 9 -16 13 -16 11 0 31 -47 23
-54 -10 -11 -11 -37 -1 -30 5 3 7 10 4 15 -4 5 -4 9 -1 9 3 0 10 -10 17 -21 9
-17 8 -20 -3 -13 -11 7 -11 5 0 -9 8 -9 11 -21 8 -26 -4 -5 -1 -13 5 -17 8 -5
9 -3 4 6 -5 8 -4 11 3 6 6 -4 9 -13 5 -21 -3 -8 0 -15 7 -15 6 0 9 -4 6 -9 -3
-5 1 -11 9 -15 9 -3 12 -12 8 -22 -4 -12 -3 -15 5 -10 8 4 10 2 6 -7 -3 -8 2
-21 10 -30 8 -8 12 -17 9 -21 -4 -3 0 -6 8 -6 11 0 11 -2 -1 -10 -13 -8 -12
-10 4 -10 12 0 16 -5 13 -15 -4 -8 -1 -17 5 -21 7 -5 8 -2 3 6 -5 9 -4 11 4 6
8 -6 9 -12 2 -20 -14 -16 -2 -29 14 -16 9 7 11 2 10 -21 -2 -30 23 -56 41 -41
5 4 2 -2 -6 -12 -10 -13 -10 -17 -2 -12 7 4 12 1 12 -9 0 -10 -5 -13 -12 -9
-7 4 -8 3 -4 -4 4 -6 14 -8 23 -5 10 4 14 2 9 -5 -3 -6 -2 -13 4 -17 6 -4 7
-11 4 -17 -4 -7 -2 -8 4 -4 7 4 12 2 12 -4 0 -6 5 -8 13 -4 7 5 6 0 -3 -11
-14 -17 -13 -18 2 -12 13 4 15 2 11 -10 -4 -11 -2 -14 5 -9 8 5 12 0 12 -14 0
-12 4 -18 10 -15 5 3 10 -1 10 -10 0 -10 5 -13 11 -9 8 5 10 -1 7 -20 -4 -20
-2 -24 7 -16 9 8 14 6 19 -6 3 -9 4 -20 1 -24 -3 -5 4 -11 15 -15 11 -4 18
-11 15 -16 -4 -5 -1 -9 5 -9 15 0 41 -26 33 -34 -4 -3 -1 -6 6 -6 8 0 11 -6 7
-16 -5 -14 -4 -15 9 -4 13 11 15 10 10 -2 -3 -8 4 -23 17 -34 l23 -19 -20 25
c-16 21 -14 20 13 -4 17 -17 32 -38 32 -48 0 -16 11 -23 33 -19 5 1 6 -3 3 -8
-4 -5 6 -14 21 -19 22 -8 24 -11 8 -12 l-20 -1 20 -12 c11 -6 23 -12 28 -13 4
-1 10 -2 13 -3 4 0 0 -8 -7 -18 -12 -14 -12 -16 1 -11 20 7 50 -9 50 -27 0 -8
6 -15 14 -15 8 0 18 -5 22 -12 5 -7 3 -8 -6 -3 -8 5 -11 4 -6 -3 4 -6 14 -8
23 -5 11 4 14 3 9 -5 -4 -7 -2 -12 4 -12 7 0 25 -14 41 -31 16 -17 29 -28 29
-24 0 5 12 -5 26 -21 15 -16 23 -23 20 -17 -5 9 -2 11 8 7 14 -6 20 -17 18
-35 -1 -4 8 -4 20 -1 14 3 19 1 14 -6 -4 -7 -1 -12 9 -12 9 0 14 -4 10 -9 -3
-6 3 -8 14 -6 15 3 18 0 14 -13 -6 -15 -5 -15 10 -3 15 12 17 12 10 -4 -5 -14
-3 -17 10 -12 9 3 19 1 23 -5 5 -7 2 -8 -6 -3 -8 5 -11 4 -6 -3 3 -6 16 -9 27
-7 15 3 19 0 15 -11 -3 -9 -1 -12 4 -9 6 3 10 1 10 -6 0 -8 5 -8 18 2 9 7 14
10 10 5 -12 -14 10 -45 29 -42 10 2 26 -8 36 -21 15 -18 22 -21 37 -13 16 9
18 8 13 -6 -4 -11 -2 -15 4 -11 6 4 21 -2 33 -13 28 -24 37 -26 19 -3 -13 15
-12 15 8 3 12 -8 19 -19 16 -25 -4 -5 -3 -7 2 -3 4 4 15 2 23 -4 8 -7 26 -14
40 -16 14 -2 34 -13 44 -24 11 -13 18 -16 18 -8 0 9 8 6 23 -8 18 -17 26 -19
35 -10 9 9 12 9 12 -1 0 -7 4 -10 9 -6 5 3 16 -2 24 -10 9 -8 22 -15 29 -15
10 0 9 3 -2 10 -10 7 -11 10 -2 10 7 0 15 -7 18 -15 5 -12 9 -13 21 -4 8 7 13
8 12 3 -4 -21 2 -26 16 -14 12 10 15 10 15 -3 0 -9 5 -19 12 -23 8 -5 9 -1 5
12 -7 18 -7 18 8 0 9 -12 15 -15 15 -7 0 10 6 9 24 -3 16 -10 27 -12 31 -6 4
6 11 8 16 4 6 -4 6 -11 -1 -19 -10 -12 -6 -13 19 -5 22 6 33 5 42 -6 9 -12 15
-12 27 -2 10 8 13 8 9 2 -4 -7 2 -14 14 -17 18 -5 18 -3 7 11 -12 16 -11 16 7
1 11 -9 26 -14 33 -12 6 3 12 0 12 -7 0 -8 6 -8 21 1 15 8 19 8 15 0 -10 -15
7 -14 23 1 9 8 11 8 8 2 -9 -16 18 -25 32 -11 9 9 11 8 6 -4 -4 -10 0 -16 9
-16 8 0 13 4 10 8 -2 4 0 11 6 14 6 4 9 1 8 -6 -2 -6 3 -14 10 -16 6 -3 12 0
12 6 0 6 5 11 11 11 5 0 7 -5 3 -12 -5 -8 -2 -9 9 -5 10 3 17 3 17 -1 0 -4 22
-7 50 -6 27 1 48 -2 45 -6 -7 -11 15 -7 44 9 13 7 21 8 17 3 -9 -16 14 -27 57
-27 32 -1 36 1 22 11 -14 10 -13 12 10 10 14 0 23 -6 21 -11 -4 -12 102 -14
121 -2 6 4 14 1 16 -5 3 -7 6 -4 6 7 1 17 3 17 11 5 6 -10 10 -11 10 -2 0 6 8
12 18 12 14 0 15 -2 2 -10 -9 -6 -10 -10 -3 -10 6 0 15 5 19 11 4 8 9 7 15 -2
5 -8 9 -9 9 -3 0 7 24 12 63 13 34 1 71 3 82 5 11 2 26 -1 33 -7 9 -7 11 -6 7
5 -3 8 2 21 11 29 10 8 15 9 11 2 -4 -6 -3 -14 3 -18 5 -3 10 -2 10 4 0 6 7 7
17 4 12 -5 14 -3 8 8 -7 11 -6 12 6 2 9 -7 20 -9 29 -3 9 6 20 4 29 -3 12 -10
13 -9 7 1 -6 11 -1 12 23 9 18 -3 29 -1 25 4 -3 5 -9 7 -14 4 -5 -3 -11 -2
-14 3 -3 5 17 8 45 8 30 -1 48 2 45 9 -2 5 14 11 37 12 22 2 46 8 53 14 11 9
14 8 14 -2 1 -9 5 -8 15 5 8 11 15 16 15 12 0 -5 8 -2 17 5 15 12 16 12 8 -1
-8 -13 -6 -13 8 -1 11 8 27 11 44 6 27 -6 27 -6 8 10 -17 14 -17 16 -2 11 10
-3 17 0 17 7 0 8 4 7 10 -3 8 -12 10 -12 16 4 5 12 9 14 14 6 5 -8 12 -6 25 6
10 10 27 20 39 21 34 5 48 12 41 22 -3 6 5 8 20 5 14 -2 25 0 25 6 0 6 5 8 10
5 6 -3 10 2 10 12 0 10 4 14 8 8 4 -5 17 -11 30 -12 17 -2 22 2 20 15 -2 9 3
16 10 15 6 -2 12 1 12 6 0 5 7 12 16 15 8 3 12 2 9 -4 -3 -6 1 -7 10 -4 9 4
13 9 10 12 -9 9 66 42 78 35 7 -4 8 0 3 12 -5 15 -4 16 8 6 12 -10 17 -9 28 8
7 12 19 21 26 21 7 0 10 4 7 10 -6 10 7 14 34 11 7 -2 11 1 8 6 -3 4 1 14 9
21 9 8 14 9 14 2 0 -6 5 -8 10 -5 6 4 8 11 5 16 -4 5 3 9 15 9 14 0 19 4 14
12 -5 8 -2 9 10 5 14 -5 17 -3 13 8 -4 8 -2 17 3 20 6 4 10 1 10 -4 0 -6 4
-11 10 -11 5 0 7 7 3 15 -3 9 -2 15 3 14 20 -3 35 2 29 10 -3 5 -1 12 5 16 5
3 10 1 10 -5 0 -6 5 -8 10 -5 6 4 8 11 5 16 -4 5 -1 9 5 9 6 0 8 5 4 13 -5 7
0 6 11 -3 10 -8 16 -10 12 -4 -4 7 10 23 34 38 22 15 37 31 34 37 -4 5 -1 8 6
7 7 -2 14 3 15 10 1 6 2 15 3 18 0 4 7 1 15 -5 11 -9 16 -5 26 19 7 16 17 27
23 23 7 -4 8 0 3 13 -4 10 -4 15 0 11 4 -4 13 2 21 13 8 11 19 20 24 20 16 0
92 80 77 80 -8 0 -6 5 5 11 9 5 22 7 27 4 6 -4 7 1 3 11 -5 13 -3 16 10 11 22
-8 21 -3 0 19 -16 16 -16 17 -1 12 10 -4 19 -1 22 8 3 8 12 14 20 14 9 0 13 6
10 14 -3 7 2 16 11 20 9 3 13 10 10 16 -3 5 1 10 9 10 16 0 19 9 17 40 0 10 1
11 5 3 8 -19 25 -16 22 4 -2 10 3 18 10 19 6 1 15 2 18 3 4 0 0 9 -7 18 -9 10
-9 14 -2 10 11 -7 33 19 30 33 -3 8 33 55 41 54 4 0 12 13 17 30 6 17 15 30
21 29 5 -1 11 7 11 18 1 12 -2 17 -10 12 -7 -3 -3 3 7 15 23 26 34 30 15 4
-13 -15 -12 -16 3 -4 9 7 15 22 13 32 -2 11 1 19 8 17 6 -1 12 5 12 13 0 8 7
14 14 12 7 -1 10 2 5 9 -4 7 1 19 12 27 19 14 18 15 -1 8 -18 -6 -19 -5 -3 7
10 8 14 17 10 21 -3 4 4 16 18 28 14 11 18 16 10 12 -13 -7 -13 -5 -2 8 10 13
10 17 0 21 -8 3 -6 6 5 6 10 1 16 5 13 10 -4 5 -1 11 4 13 6 2 12 13 13 26 1
15 6 21 16 17 11 -4 12 -3 1 10 -11 14 -7 19 12 16 4 0 5 6 2 14 -4 8 -11 12
-17 8 -6 -3 -7 -1 -3 6 4 6 12 8 18 5 7 -5 9 -1 5 9 -3 9 -3 16 1 16 19 -3 25
2 12 11 -10 6 -11 10 -2 10 6 0 12 5 12 11 0 5 -6 7 -12 4 -7 -4 -5 0 4 8 10
8 14 17 10 21 -4 4 1 14 11 21 12 8 16 21 13 38 -3 16 1 27 10 31 12 4 12 10
4 26 -9 17 -8 19 7 13 16 -6 17 -5 3 12 -12 15 -12 17 -1 10 11 -6 13 -4 8 8
-3 9 1 18 10 21 9 4 13 9 10 13 -4 3 -2 12 5 20 9 11 7 12 -8 6 -17 -6 -17 -5
-6 10 8 9 11 20 8 26 -3 5 1 12 10 15 13 5 14 9 4 21 -10 12 -10 15 1 15 11 0
11 2 -1 10 -13 9 -13 10 0 10 9 0 16 9 16 19 0 16 -3 18 -16 8 -8 -6 -5 0 7
13 16 19 19 29 12 43 -7 11 -7 17 1 17 6 0 9 14 7 36 -3 26 -1 34 9 30 10 -4
11 1 4 18 -6 16 -5 28 3 36 9 10 9 11 0 6 -7 -4 -13 -2 -13 3 0 6 5 11 11 11
8 0 7 5 -1 15 -11 13 -10 14 5 9 15 -6 16 -4 6 14 -9 17 -9 22 1 22 9 0 9 3
-2 10 -8 5 -10 10 -4 10 11 0 11 51 -1 69 -3 6 -1 11 5 11 7 0 8 5 1 17 -6 12
-5 21 7 31 10 7 11 11 5 7 -17 -8 -17 7 0 24 10 11 10 13 0 7 -14 -8 -18 10
-5 18 8 4 8 25 3 69 -1 5 -6 5 -12 1 -8 -4 -8 -1 -1 13 7 12 7 25 1 36 -6 9
-6 17 -1 17 10 0 7 53 -3 71 -6 8 -4 10 5 4 9 -5 11 -4 6 4 -13 20 -14 61 -2
62 6 0 2 4 -9 9 -11 5 -14 9 -7 9 6 1 12 6 12 12 0 5 -4 8 -8 5 -4 -2 -14 5
-22 17 -12 19 -11 21 2 10 15 -13 28 -8 28 10 0 6 -3 7 -7 4 -9 -9 -31 35 -24
48 9 16 10 35 2 35 -4 0 -8 6 -9 13 -2 22 -7 42 -17 57 -7 13 -6 13 7 2 13
-10 18 -10 24 -1 4 8 3 9 -4 5 -7 -4 -12 -1 -12 9 0 10 -5 14 -12 9 -10 -5
-10 -4 -1 6 11 12 7 44 -6 36 -3 -2 -6 16 -5 40 0 31 -3 41 -11 34 -7 -6 -10
-1 -9 18 1 15 -4 33 -10 41 -9 12 -8 13 4 6 12 -6 13 -5 3 6 -15 16 -17 33 -3
24 16 -10 11 1 -7 16 -10 8 -14 9 -10 2 4 -6 3 -14 -2 -17 -11 -7 -9 13 2 32
8 12 2 16 -18 12 -5 -1 -5 4 2 11 13 13 6 42 -8 33 -5 -3 -9 0 -9 5 0 6 5 11
10 11 6 0 5 6 -2 14 -7 8 -17 11 -22 8 -5 -3 -5 1 -1 9 9 14 15 52 7 44 -8 -7
-34 24 -28 34 8 13 -4 42 -15 35 -5 -3 -10 7 -11 23 0 15 -2 35 -2 43 -1 8 -9
14 -17 12 -12 -2 -16 5 -15 25 0 17 -4 27 -12 25 -7 -1 -12 5 -12 14 0 9 5 12
12 8 7 -4 8 -3 4 4 -4 7 -15 12 -24 13 -11 0 -12 3 -4 6 6 2 12 10 12 16 0 5
-3 8 -6 4 -4 -3 -13 0 -20 8 -17 17 -18 29 -1 19 8 -5 8 -3 -2 9 -7 9 -18 14
-25 10 -6 -4 -4 2 4 12 9 11 10 16 3 11 -8 -4 -13 -2 -13 5 0 6 -8 18 -17 26
-10 8 -13 12 -7 9 6 -3 11 1 11 9 0 8 -3 14 -6 13 -28 -3 -33 3 -15 17 18 14
18 14 -5 10 -13 -2 -21 -2 -18 2 3 3 0 12 -8 20 -8 8 -15 23 -15 34 0 10 -5
19 -11 19 -5 0 -7 4 -4 10 3 5 0 7 -8 4 -10 -3 -14 1 -14 13 1 9 -3 18 -10 18
-15 0 -30 15 -14 15 7 0 9 5 6 10 -4 6 -10 8 -15 5 -5 -3 -7 4 -5 15 2 12 -2
23 -10 27 -8 3 -12 9 -9 14 3 5 -2 6 -10 3 -11 -4 -16 0 -16 15 0 12 -6 20
-12 19 -8 -2 -12 5 -10 16 2 12 -1 16 -9 10 -9 -5 -10 -2 -5 11 6 16 4 16 -11
4 -10 -7 -15 -10 -11 -5 4 4 -3 18 -16 30 -12 11 -14 15 -4 7 10 -8 18 -10 18
-5 -1 16 -50 45 -63 38 -8 -5 -7 -2 2 9 12 15 11 17 -5 17 -16 0 -17 2 -4 10
13 8 12 10 -3 10 -26 0 -50 27 -43 47 5 13 4 14 -9 3 -14 -12 -18 -7 -17 20 0
3 -12 14 -26 24 -27 20 -27 20 -9 0 9 -12 17 -24 17 -29 0 -4 -9 4 -20 18 -11
14 -20 33 -20 42 0 14 -3 15 -13 6 -16 -13 -28 -5 -21 14 3 7 -4 16 -15 20
-12 3 -19 11 -15 16 3 5 2 9 -3 8 -20 -3 -33 2 -31 14 2 6 -3 11 -9 9 -7 -1
-13 3 -13 9 0 5 -6 7 -12 3 -10 -6 -10 -4 0 8 11 14 10 16 -12 14 -14 -2 -24
0 -21 3 2 4 0 13 -6 21 -7 13 -9 13 -9 0 -1 -12 -3 -11 -11 3 -6 9 -14 15 -19
12 -4 -3 -6 5 -4 17 2 13 1 17 -2 10 -5 -10 -9 -9 -19 5 -7 10 -22 18 -32 18
-10 0 -18 7 -17 16 1 11 -5 15 -17 12 -13 -4 -19 0 -19 10 0 22 -34 39 -48 25
-9 -9 -11 -6 -8 9 4 16 0 20 -20 17 -13 -1 -22 2 -18 7 3 5 0 9 -6 9 -6 0 -8
5 -4 13 5 8 2 8 -9 -2 -11 -9 -17 -10 -17 -2 0 6 -7 11 -15 11 -8 0 -19 9 -25
20 -6 11 -17 20 -25 20 -7 0 -16 6 -18 13 -4 8 -6 8 -6 -2 -1 -11 -5 -10 -17
5 -8 10 -12 13 -8 5 5 -10 -5 -7 -28 7 -19 12 -38 19 -41 16 -3 -3 -12 3 -19
15 -7 12 -21 21 -30 21 -10 0 -18 5 -18 11 0 6 -9 9 -20 6 -11 -3 -23 0 -27 5
-4 7 -1 8 7 3 9 -5 11 -4 6 4 -6 9 -11 9 -24 -1 -13 -11 -15 -11 -9 4 5 13 1
16 -19 12 -16 -3 -27 1 -30 11 -4 10 -13 13 -26 9 -15 -4 -18 -3 -13 7 6 9 3
11 -8 6 -10 -3 -17 -3 -17 2 0 4 -12 13 -27 20 l-28 12 25 -21 25 -21 -27 12
c-16 7 -28 15 -28 19 0 4 -10 7 -22 7 -28 0 -59 13 -54 22 2 3 -9 7 -25 7 -17
1 -26 -2 -22 -9 4 -6 1 -7 -6 -3 -7 5 -10 15 -7 25 5 12 2 11 -9 -3 -14 -18
-15 -18 -15 -2 0 9 -4 14 -10 11 -5 -3 -10 0 -11 7 0 7 -4 4 -9 -7 -7 -16 -9
-17 -9 -3 -1 12 -7 15 -23 10 -15 -4 -19 -2 -13 7 6 10 3 11 -15 1 -12 -7 -20
-8 -16 -2 3 5 -1 12 -9 15 -10 4 -12 1 -8 -10 4 -11 2 -14 -5 -9 -7 4 -12 15
-12 24 0 10 -3 13 -8 7 -11 -15 -32 -17 -32 -3 0 9 -4 8 -10 -2 -6 -9 -10 -10
-10 -3 0 6 -9 10 -19 8 -29 -5 -62 6 -54 19 4 6 -2 4 -12 -4 -10 -8 -16 -10
-12 -3 4 6 2 15 -4 19 -7 4 -9 3 -5 -4 3 -6 2 -13 -4 -17 -5 -3 -10 -2 -10 3
0 5 -20 10 -45 10 -25 1 -50 4 -55 7 -6 4 -10 0 -10 -7 0 -8 -5 -6 -11 5 -10
18 -11 18 -32 0 -11 -10 -18 -13 -14 -8 3 6 -4 17 -16 25 -20 12 -21 12 -9 -3
12 -14 7 -15 -41 -14 -30 1 -53 5 -50 10 2 4 10 4 16 1 7 -4 9 -3 4 1 -10 11
-68 14 -61 3 3 -5 10 -5 16 -2 6 4 8 3 5 -2 -7 -12 -54 -11 -64 1 -5 4 -3 5 4
1 6 -3 14 -3 16 1 3 5 -13 9 -35 9 -23 1 -34 -2 -27 -7 7 -4 17 -5 21 -3 4 3
8 2 8 -3 0 -4 -22 -9 -50 -9 -34 -1 -47 2 -43 10 4 6 -1 5 -10 -3 -14 -11 -17
-11 -17 0 0 8 -6 5 -15 -7 -15 -19 -15 -19 -8 1 3 11 3 17 -2 13 -4 -4 -15 -2
-24 5 -14 10 -14 10 -3 -4z m-143 -39 c3 -6 -1 -7 -9 -4 -18 7 -21 14 -7 14 6
0 13 -4 16 -10z m1615 -300 c0 -5 -2 -10 -4 -10 -3 0 -8 5 -11 10 -3 6 -1 10
4 10 6 0 11 -4 11 -10z m-2575 -40 c-10 -11 -21 -18 -23 -15 -3 3 3 12 14 20
27 20 30 18 9 -5z m2745 -56 c0 -2 -7 -4 -15 -4 -8 0 -15 4 -15 10 0 5 7 7 15
4 8 -4 15 -8 15 -10z m-2902 -44 c-7 -10 -14 -17 -17 -15 -4 4 18 35 25 35 2
0 -1 -9 -8 -20z m561 -514 c11 -8 13 -8 7 2 -4 6 -3 12 3 12 5 0 13 -5 16 -10
4 -6 12 -7 18 -3 16 11 67 11 61 1 -3 -5 -10 -5 -16 -2 -6 4 -8 2 -4 -4 3 -6
15 -9 26 -7 11 2 20 -1 20 -8 0 -8 3 -8 12 1 10 10 15 7 26 -10 7 -13 11 -16
9 -7 -3 9 1 16 8 16 8 0 11 -7 7 -15 -4 -11 -1 -14 12 -9 9 4 15 3 12 -2 -3
-5 1 -12 10 -15 10 -4 13 -2 8 6 -4 7 -3 8 4 4 7 -4 12 -15 12 -24 0 -15 2
-15 10 -2 8 13 13 9 12 -10 0 -3 12 -14 26 -24 l27 -20 -20 25 -20 24 23 -19
c12 -11 22 -25 22 -33 0 -11 18 -18 41 -15 4 1 5 -8 2 -18 -4 -14 0 -20 11
-20 10 0 14 -4 11 -10 -3 -5 -2 -10 4 -10 5 0 11 3 14 8 2 4 2 1 1 -5 -4 -15
30 -35 41 -25 5 4 5 1 1 -5 -5 -9 0 -13 16 -13 17 0 19 -3 9 -9 -10 -6 -5 -12
18 -22 17 -8 31 -17 31 -21 0 -5 7 -8 16 -8 8 0 22 -6 30 -14 8 -8 24 -13 35
-11 18 4 19 2 7 -12 -9 -12 -9 -15 0 -9 7 4 12 2 12 -6 0 -9 3 -9 10 2 6 10
10 11 10 3 0 -8 13 -13 31 -13 27 0 30 -2 19 -15 -16 -20 -6 -19 14 1 14 13
16 14 16 0 0 -8 5 -18 12 -22 7 -4 8 -3 4 4 -4 7 -2 12 3 12 6 0 11 -6 11 -12
0 -8 3 -9 8 -3 9 12 42 16 42 5 0 -5 -3 -10 -7 -13 -10 -5 12 1 32 9 8 3 15 1
15 -6 0 -6 -5 -8 -12 -4 -7 4 -8 3 -4 -4 4 -6 13 -9 21 -6 8 4 13 10 10 14 -3
5 0 12 6 16 8 4 9 3 5 -5 -6 -8 2 -10 26 -6 24 4 29 3 18 -5 -9 -6 -10 -10 -3
-10 7 0 17 8 23 18 10 15 11 15 6 0 -2 -9 2 -19 10 -22 9 -3 12 -1 9 4 -3 6
-1 10 5 10 6 0 8 5 4 12 -4 7 -3 8 5 4 6 -4 9 -12 6 -17 -3 -5 1 -6 9 -3 9 3
16 11 16 18 0 7 4 6 9 -3 6 -10 10 -10 16 -1 6 9 10 9 16 -1 7 -11 9 -11 9 -1
0 7 5 10 10 7 6 -3 10 -2 10 3 0 6 7 13 16 16 14 5 15 4 5 -8 -10 -12 -9 -14
8 -9 12 3 18 10 14 16 -4 6 0 8 10 4 10 -3 17 -2 17 4 0 6 4 8 9 5 5 -3 12 1
15 10 3 8 11 12 16 9 6 -4 18 -1 26 6 13 10 17 10 25 -2 8 -11 9 -10 7 6 -2
12 3 20 12 20 8 0 26 12 39 27 24 28 49 39 35 16 -5 -9 -3 -9 9 1 9 7 14 18
10 25 -3 6 -2 7 2 3 5 -4 15 3 22 15 l14 23 -7 -25 c-6 -24 -6 -24 9 -5 8 11
13 23 11 27 -3 5 1 8 9 8 8 0 18 7 21 16 4 9 13 14 22 10 8 -3 13 -2 10 3 -3
4 2 17 10 27 9 10 13 12 9 4 -4 -8 2 -4 13 9 10 13 24 21 30 17 7 -4 10 1 7
13 -3 15 0 18 12 14 13 -5 15 -2 9 12 -4 11 -4 16 0 12 4 -4 13 -2 21 4 7 6
13 9 13 6 0 -3 13 -1 30 4 16 6 28 14 26 18 -2 3 7 11 20 18 14 6 26 7 30 2 3
-5 12 -2 21 6 12 13 18 13 31 3 13 -11 14 -11 8 0 -6 10 -2 13 15 12 13 -1 27
-1 32 0 31 10 62 -4 50 -23 -3 -6 -1 -7 6 -3 6 4 9 11 7 15 -3 3 4 7 15 7 11
0 17 -5 15 -12 -3 -8 5 -11 25 -7 18 2 29 0 29 -8 0 -8 5 -7 17 2 9 8 14 10
11 4 -3 -5 0 -16 8 -23 9 -8 14 -9 14 -2 0 6 5 8 10 5 6 -4 7 -11 4 -17 -5 -7
-2 -9 7 -6 16 6 61 -36 51 -47 -4 -4 4 -2 18 5 14 7 22 9 18 5 -4 -4 1 -15 10
-24 10 -9 13 -14 7 -11 -6 3 -3 -2 7 -11 9 -9 14 -20 10 -25 -4 -5 0 -3 9 4
14 10 18 10 23 -3 4 -10 2 -14 -5 -9 -6 3 -3 -5 6 -20 10 -14 22 -26 29 -26 6
0 4 -5 -4 -10 -10 -6 -11 -10 -2 -10 6 0 12 -7 12 -15 0 -8 4 -15 9 -15 5 0
12 -7 15 -16 3 -8 2 -12 -4 -9 -6 3 -10 1 -10 -5 0 -6 8 -14 17 -17 15 -6 15
-7 -3 -14 -17 -7 -17 -8 -1 -8 9 -1 17 -7 18 -13 0 -7 2 -28 3 -45 3 -22 0
-31 -8 -26 -6 3 -2 -4 8 -16 16 -17 16 -20 4 -16 -9 4 -19 1 -23 -5 -3 -6 -1
-9 6 -8 7 2 13 -9 14 -24 1 -20 -1 -25 -9 -18 -8 6 -12 3 -12 -10 0 -10 3 -17
7 -14 8 5 22 -27 14 -34 -3 -3 -5 0 -5 6 0 7 -5 12 -10 12 -6 0 -10 -6 -9 -12
4 -34 -2 -59 -12 -52 -7 4 -10 1 -7 -7 3 -8 -2 -20 -11 -27 -9 -8 -11 -11 -4
-8 7 4 9 -1 6 -15 -4 -14 -8 -17 -13 -9 -9 15 -18 1 -15 -22 2 -11 -3 -15 -15
-13 -11 2 -17 -2 -16 -13 0 -9 -6 -17 -14 -17 -8 0 -14 -8 -14 -18 1 -9 -2
-15 -6 -12 -4 3 -13 -2 -20 -11 -7 -8 -19 -13 -27 -10 -8 3 -11 1 -8 -4 3 -6
1 -10 -5 -10 -6 0 -8 -4 -5 -10 3 -5 1 -10 -4 -10 -6 0 -11 6 -11 13 0 8 -2 9
-8 1 -4 -7 -16 -13 -27 -16 -13 -2 -19 -10 -17 -23 2 -13 0 -16 -5 -8 -6 8
-14 9 -23 3 -9 -6 -20 -4 -29 3 -12 10 -14 9 -8 -6 4 -10 3 -16 -2 -12 -5 3
-12 1 -16 -5 -3 -5 -12 -10 -18 -10 -7 0 -6 4 3 10 8 5 10 10 4 10 -5 0 -15
-5 -21 -11 -7 -7 -22 -13 -35 -14 -38 -4 -39 -5 -32 -17 4 -7 4 -10 -1 -6 -4
4 -15 2 -23 -5 -13 -9 -14 -9 -8 1 4 6 2 12 -3 12 -6 0 -11 -5 -11 -10 0 -13
-32 -9 -43 5 -5 6 -5 -1 -2 -14 6 -21 4 -23 -14 -18 -15 3 -21 0 -21 -10 0
-13 -3 -13 -15 -3 -13 11 -14 10 -10 -2 4 -9 -1 -18 -10 -22 -9 -3 -14 -2 -11
3 4 5 -3 7 -15 4 -16 -4 -17 -8 -7 -14 12 -8 4 -13 -14 -10 -5 0 -8 -3 -8 -9
0 -5 -5 -10 -11 -10 -5 0 -7 5 -3 12 4 7 3 8 -4 4 -7 -4 -12 -14 -12 -23 0 -9
-6 -13 -14 -10 -10 4 -13 0 -11 -14 3 -16 1 -18 -9 -10 -9 8 -20 3 -41 -19
-16 -17 -25 -30 -20 -30 5 0 -1 -7 -13 -16 -12 -8 -22 -22 -22 -30 0 -8 -6
-14 -14 -14 -20 0 -29 -17 -15 -26 8 -4 9 -3 5 4 -4 7 -5 12 -2 12 16 0 12
-20 -7 -36 -14 -13 -18 -14 -12 -4 6 9 0 5 -12 -9 -18 -20 -20 -28 -10 -40 9
-12 9 -13 0 -7 -8 4 -13 1 -13 -9 0 -9 -4 -14 -9 -11 -5 4 -7 -3 -4 -14 3 -11
0 -20 -6 -20 -6 0 -11 -5 -11 -11 0 -5 6 -7 13 -3 9 6 9 5 0 -8 -7 -8 -9 -19
-5 -23 4 -5 2 -5 -4 -2 -17 10 -25 -18 -11 -33 9 -10 9 -11 -1 -5 -10 5 -12 0
-9 -23 3 -16 1 -36 -4 -43 -7 -10 -8 -5 -5 15 3 16 2 26 -1 22 -14 -14 -13
-51 2 -63 15 -10 14 -12 -4 -18 -13 -4 -18 -11 -14 -18 10 -16 10 -27 1 -60
-6 -24 -5 -27 7 -17 10 8 15 9 15 2 0 -6 -4 -13 -10 -17 -5 -3 -6 -13 -3 -22
5 -11 3 -14 -6 -8 -10 6 -11 3 -2 -12 6 -11 7 -24 3 -29 -4 -5 1 -2 11 5 15
12 17 12 11 -3 -3 -9 -1 -22 5 -30 6 -7 8 -16 4 -20 -10 -10 -12 -36 -3 -36 5
0 6 -13 4 -29 -3 -17 1 -34 9 -43 8 -7 13 -28 13 -47 -1 -18 3 -35 8 -38 5 -4
6 -2 3 4 -3 5 0 10 8 10 10 0 10 -6 -3 -26 -15 -22 -15 -24 -1 -19 12 5 15 -1
12 -28 -1 -25 1 -33 10 -29 7 4 5 1 -4 -7 -16 -13 -15 -43 2 -32 5 3 0 -11
-11 -31 -11 -20 -17 -34 -12 -31 5 3 9 -8 8 -23 -1 -16 -4 -27 -8 -24 -8 4
-12 -12 -8 -36 1 -8 -6 -21 -16 -28 -10 -7 -14 -13 -8 -13 5 0 3 -4 -4 -9 -7
-4 -14 -18 -15 -30 -1 -14 -6 -20 -15 -16 -10 4 -12 -1 -6 -18 3 -12 3 -19 -2
-14 -4 4 -14 -5 -21 -20 -7 -16 -11 -20 -9 -11 4 12 0 15 -9 11 -8 -3 -12 -9
-9 -14 3 -5 0 -9 -6 -9 -6 0 -8 -5 -4 -12 5 -7 2 -9 -9 -5 -12 4 -14 2 -10
-11 6 -15 5 -15 -10 -3 -15 12 -17 12 -11 -3 5 -12 2 -15 -12 -9 -12 4 -15 3
-10 -5 5 -8 0 -12 -13 -12 -11 0 -23 -5 -27 -12 -5 -7 -3 -8 6 -3 9 5 11 4 6
-4 -6 -9 -11 -9 -22 0 -11 9 -14 8 -15 -7 0 -11 -3 -14 -6 -6 -2 6 -9 12 -15
12 -6 0 -8 -6 -5 -13 3 -9 -4 -12 -27 -11 -17 1 -40 -5 -51 -14 -19 -16 -19
-16 -5 2 14 18 14 19 -7 8 -26 -14 -36 -15 -29 -3 7 11 -21 8 -31 -4 -4 -4 -2
-5 6 0 9 5 12 4 8 -2 -7 -12 -57 -5 -57 8 0 5 -7 6 -15 3 -8 -4 -23 0 -32 7
-12 10 -15 10 -9 2 12 -20 -8 -15 -26 6 -12 14 -25 18 -43 15 -17 -3 -24 -1
-20 6 3 5 -1 10 -10 10 -9 0 -27 12 -40 26 -14 15 -25 24 -25 20 0 -4 -6 -1
-14 6 -8 7 -12 16 -9 20 2 4 -2 5 -10 2 -8 -3 -18 0 -23 7 -4 8 -3 10 4 5 7
-4 12 -5 12 -1 0 3 -11 10 -25 15 -16 6 -25 17 -25 30 0 12 -4 19 -9 16 -5 -3
-12 1 -15 10 -4 10 -2 13 7 9 6 -4 4 0 -5 8 -10 8 -15 17 -11 20 3 4 1 7 -5 7
-6 0 -9 7 -5 17 4 11 3 14 -5 9 -12 -7 -16 4 -13 36 1 10 -4 18 -11 18 -9 0
-9 3 2 10 13 9 13 10 0 10 -13 0 -13 1 0 10 11 7 11 10 2 10 -7 0 -10 4 -7 10
3 5 2 10 -3 10 -6 0 -13 7 -16 16 -5 14 -4 15 9 4 9 -7 18 -10 22 -6 3 3 1 6
-5 6 -7 0 -11 15 -10 40 1 21 4 38 7 36 3 -2 6 12 6 32 0 21 4 40 10 44 5 4
11 22 13 40 1 18 3 40 4 48 0 8 6 18 11 22 13 8 19 40 6 32 -5 -3 -6 -10 -3
-16 4 -7 2 -8 -4 -4 -9 5 -9 12 0 26 7 10 15 17 18 15 4 -2 5 12 4 31 -2 25 0
33 9 28 9 -5 9 -3 0 7 -15 15 -17 33 -4 24 5 -3 13 0 17 6 4 7 3 10 -2 7 -5
-3 -15 0 -22 8 -10 12 -10 14 2 14 10 0 13 6 9 17 -4 9 -2 14 3 10 6 -3 11 3
11 14 1 10 -3 19 -8 19 -6 0 -7 -4 -4 -10 3 -5 1 -10 -4 -10 -17 0 -13 20 5
27 14 5 12 8 -7 19 -13 7 -19 13 -13 14 5 0 10 20 10 45 1 25 -3 42 -9 38 -5
-3 -4 4 2 16 11 19 8 25 -11 22 -10 -1 3 32 16 42 6 5 0 5 -14 1 -23 -6 -24
-6 -10 11 8 11 10 16 4 12 -7 -4 -15 0 -18 9 -4 9 -2 13 5 8 6 -3 3 5 -6 20
-10 14 -14 26 -9 26 4 0 -1 7 -12 16 -10 8 -14 13 -8 10 6 -3 11 1 11 9 0 8
-4 12 -9 9 -5 -3 -14 8 -21 25 -7 17 -16 29 -19 25 -9 -8 -20 34 -13 46 4 6 3
10 -2 9 -21 -4 -33 2 -33 15 0 8 -5 18 -12 22 -7 5 -8 3 -3 -6 6 -9 4 -11 -4
-6 -7 5 -10 15 -6 23 5 14 3 14 -11 2 -15 -12 -17 -12 -12 1 6 19 -13 39 -32
32 -8 -3 -12 -2 -8 2 8 10 -14 36 -24 29 -5 -2 -8 3 -8 13 0 14 -2 15 -17 3
-11 -10 -14 -10 -9 -1 4 8 1 12 -9 12 -11 0 -15 5 -12 14 4 11 1 13 -10 9 -11
-4 -14 -2 -9 5 8 14 -20 12 -44 -3 -13 -8 -13 -7 -1 8 12 15 12 19 -5 31 -13
10 -23 11 -31 4 -9 -7 -13 -7 -13 1 0 6 -9 11 -21 11 -13 0 -18 4 -13 13 5 9
4 9 -5 1 -14 -13 -61 3 -61 21 0 6 -5 3 -10 -5 -8 -12 -10 -12 -10 5 0 17 -2
17 -10 5 -5 -8 -10 -10 -10 -4 0 6 -11 10 -24 9 -17 -2 -23 1 -20 10 4 9 -5
12 -30 12 -24 -1 -40 5 -50 18 -12 17 -16 18 -32 5 -11 -8 -16 -10 -12 -6 10
12 -32 47 -45 39 -6 -4 -8 0 -4 10 4 10 2 14 -6 12 -7 -3 -23 5 -37 16 -14 11
-19 18 -12 14 6 -3 12 -1 12 4 0 6 -4 11 -8 11 -13 0 -52 36 -52 47 0 5 -8 18
-17 29 -10 10 -19 30 -21 44 -1 14 -3 30 -4 37 -1 7 -5 10 -10 7 -5 -3 -5 -11
-2 -17 4 -7 3 -8 -2 -4 -5 5 -9 18 -9 30 -1 12 -5 28 -9 36 -6 9 -5 12 0 8 5
-3 10 3 10 13 0 10 -3 17 -7 14 -10 -6 -5 48 5 65 6 9 5 12 -1 8 -6 -4 -14 0
-17 9 -4 10 -2 13 6 8 8 -5 9 -2 5 9 -3 9 -2 19 3 22 6 4 6 14 -1 27 -9 16 -8
19 2 13 9 -6 11 -2 6 14 -3 14 0 24 9 28 8 3 14 16 14 29 0 13 5 24 10 24 6 0
10 5 10 11 0 5 -4 7 -10 4 -16 -10 -11 1 7 16 14 12 16 12 8 0 -6 -10 -4 -12
4 -7 7 5 10 14 7 21 -6 16 17 38 29 27 5 -4 5 1 2 11 -5 13 -2 17 10 15 10 -2
18 3 19 10 1 6 2 17 3 22 0 6 6 10 12 10 5 0 7 -5 3 -12 -4 -6 -3 -8 4 -4 6 3
9 15 7 26 -3 13 1 17 11 13 8 -3 14 0 14 7 0 10 3 10 15 0 13 -11 14 -10 9 5
-5 13 -4 16 4 11 7 -4 12 -3 12 3 0 5 9 8 20 6 11 -2 18 0 15 4 -5 8 31 25 48
22 4 -1 16 6 25 15 10 11 17 13 20 5 2 -6 8 -11 14 -11 6 0 8 6 5 14 -6 16 28
11 52 -8z m2091 -76 c0 -5 -2 -10 -4 -10 -3 0 -8 5 -11 10 -3 6 -1 10 4 10 6
0 11 -4 11 -10z m-3419 -293 c-10 -9 -11 -8 -5 6 3 10 9 15 12 12 3 -3 0 -11
-7 -18z m1474 -576 c3 -5 1 -12 -5 -16 -5 -3 -10 1 -10 9 0 18 6 21 15 7z
m1358 -126 c-3 -9 -8 -14 -10 -11 -3 3 -2 9 2 15 9 16 15 13 8 -4z m-1650
-370 c10 -1 23 -8 28 -16 7 -11 9 -10 9 6 1 20 1 20 15 1 8 -11 15 -16 15 -12
0 5 6 3 14 -3 11 -9 15 -9 19 1 4 10 10 8 21 -6 12 -15 16 -16 17 -5 0 10 2
10 6 1 2 -6 9 -10 14 -7 5 4 6 -1 3 -9 -6 -16 11 -17 35 -2 9 6 12 5 7 -2 -3
-6 0 -17 8 -25 8 -8 12 -18 8 -23 -4 -5 2 -2 13 6 11 8 17 11 13 6 -8 -10 22
-46 39 -46 6 0 15 -4 18 -10 3 -6 -2 -8 -12 -5 -10 3 -8 0 5 -6 12 -7 22 -16
22 -21 0 -5 -4 -6 -10 -3 -16 10 -11 -1 7 -16 11 -10 14 -10 9 -1 -4 6 -3 12
3 12 5 0 11 -10 13 -22 2 -13 9 -22 16 -20 16 3 15 -3 -5 -24 -16 -16 -16 -16
6 -9 20 6 23 4 18 -9 -3 -8 0 -22 8 -30 11 -11 12 -16 2 -19 -6 -3 -3 -6 7 -6
20 -1 20 -1 0 -17 -10 -8 -13 -13 -6 -9 13 7 13 6 15 -42 1 -17 5 -35 10 -39
4 -4 -1 -16 -10 -26 -15 -17 -15 -18 -1 -13 13 5 15 2 11 -14 -3 -11 -9 -19
-12 -16 -4 2 -8 -2 -8 -10 0 -8 5 -11 10 -8 10 6 9 2 -11 -46 -3 -9 -1 -12 6
-7 7 4 12 2 12 -3 0 -6 -7 -11 -16 -11 -14 0 -14 -3 -4 -15 11 -13 10 -14 -4
-9 -12 5 -15 2 -10 -10 4 -10 1 -16 -7 -16 -9 0 -10 -3 -4 -8 6 -4 10 -19 10
-33 1 -21 -3 -25 -20 -22 -11 2 -14 0 -6 -3 11 -5 11 -8 0 -15 -11 -7 -11 -9
-1 -9 10 0 9 -4 -3 -16 -10 -11 -13 -20 -7 -26 13 -13 3 -50 -12 -41 -6 4 -4
-2 4 -12 9 -11 10 -16 3 -11 -7 4 -13 2 -13 -3 0 -6 8 -12 18 -12 15 -1 15 -2
1 -6 -9 -2 -19 -15 -21 -28 -3 -14 -1 -22 6 -19 12 5 15 -41 3 -52 -3 -4 0
-18 7 -33 7 -14 11 -32 8 -40 -3 -8 0 -11 7 -7 6 4 11 0 11 -9 0 -10 -5 -14
-12 -10 -7 4 -4 -2 8 -12 11 -10 19 -24 16 -31 -2 -6 3 -15 12 -18 9 -3 16
-12 16 -20 0 -8 7 -14 16 -14 8 0 12 -4 9 -10 -3 -5 -1 -10 5 -10 6 0 8 -5 4
-12 -5 -9 -2 -9 9 1 15 12 17 11 17 -8 0 -11 6 -20 13 -18 6 1 11 -4 9 -11 -2
-10 4 -11 19 -7 16 5 19 4 14 -6 -6 -9 -3 -11 10 -5 15 5 16 4 6 -8 -10 -12
-9 -13 8 -9 12 3 21 1 21 -6 0 -6 9 -11 20 -11 11 0 20 -4 20 -9 0 -5 7 -12
16 -15 15 -6 15 -4 3 11 -13 16 -12 17 4 4 10 -8 15 -21 12 -29 -4 -12 -3 -13
10 -2 12 10 15 10 15 -4 0 -9 8 -16 20 -16 11 0 20 -5 20 -11 0 -5 5 -7 12 -3
6 4 8 3 4 -4 -3 -6 0 -14 7 -19 23 -13 39 -50 24 -56 -7 -3 -6 -6 5 -6 9 -1
18 5 21 12 2 6 4 -10 3 -36 -1 -27 2 -51 6 -53 5 -3 3 -15 -4 -27 -10 -20 -9
-21 5 -9 13 11 15 10 10 -7 -3 -12 -10 -18 -15 -15 -6 4 -5 -3 1 -14 9 -17 8
-23 -6 -31 -10 -6 -13 -11 -6 -11 8 0 8 -6 0 -25 -7 -14 -15 -25 -19 -25 -5 0
-8 -7 -8 -15 0 -8 -6 -15 -12 -16 -10 0 -10 -2 -1 -6 18 -7 -6 -43 -24 -36 -8
3 -13 0 -11 -8 2 -8 -3 -13 -9 -11 -7 1 -13 -2 -13 -7 0 -5 -11 -8 -25 -6 -15
1 -31 -5 -38 -14 -15 -21 -147 -28 -147 -8 0 8 -3 7 -9 -2 -8 -13 -12 -13 -27
0 -16 12 -17 12 -10 -1 4 -9 2 -8 -7 2 -8 10 -17 15 -20 11 -4 -3 -7 -1 -7 6
0 7 -4 9 -10 6 -6 -4 -7 1 -3 12 6 16 5 17 -12 3 -10 -8 -16 -10 -12 -4 6 10
-18 29 -33 26 -3 0 -7 9 -7 20 -1 12 -8 25 -15 29 -7 5 -8 9 -3 9 6 0 1 7 -9
15 -22 17 -30 45 -13 45 8 0 8 3 -1 9 -8 4 -11 19 -8 34 2 14 0 27 -4 29 -5 2
-11 12 -13 23 -1 11 -6 25 -10 32 -4 6 -2 15 4 19 8 4 9 3 5 -4 -4 -7 -2 -12
3 -12 17 0 13 18 -6 29 -12 7 -14 10 -4 11 11 0 11 3 0 17 -10 11 -10 14 -1 9
6 -4 12 -2 12 3 0 6 -4 11 -8 11 -5 0 -8 14 -7 30 1 18 -3 30 -11 30 -7 0 -10
8 -7 19 2 10 -3 25 -12 35 -9 9 -12 16 -6 16 6 0 11 5 11 11 0 6 -6 9 -14 6
-10 -4 -13 2 -12 23 1 16 -2 27 -6 24 -4 -3 -8 1 -8 10 0 8 -4 16 -10 18 -5 2
-11 15 -12 29 -1 16 -7 25 -14 22 -7 -2 -15 1 -20 8 -5 8 -3 10 7 5 8 -4 6 -1
-5 8 -10 8 -15 19 -12 25 4 5 -3 16 -14 24 -12 8 -33 30 -47 48 -14 19 -23 26
-20 17 4 -10 2 -18 -3 -18 -9 0 -14 14 -11 32 0 5 -5 7 -12 5 -6 -1 -11 4 -9
11 1 8 -2 11 -8 7 -5 -3 -10 -1 -10 4 0 6 -6 10 -12 8 -7 -1 -12 3 -11 10 2 7
-6 10 -19 8 -11 -3 -18 -2 -14 2 3 4 -1 15 -10 25 -14 15 -20 16 -32 5 -10 -7
-13 -8 -9 -1 4 7 -3 15 -16 19 -12 4 -24 8 -27 10 -3 1 -13 5 -22 9 -10 5 -15
13 -11 19 4 7 0 8 -11 4 -13 -5 -17 -3 -13 7 4 10 0 12 -14 9 -13 -4 -19 0
-19 11 0 10 -4 14 -10 11 -5 -3 -10 0 -10 7 0 9 -3 9 -10 -2 -8 -12 -10 -10
-10 8 0 13 -4 21 -9 18 -9 -6 -26 22 -22 38 1 5 -5 4 -13 -4 -11 -8 -16 -9
-16 -1 0 23 -2 26 -23 38 -12 7 -16 12 -9 13 7 0 10 5 7 10 -4 6 -10 8 -15 5
-5 -3 -12 0 -16 6 -4 8 -3 9 4 5 7 -4 12 -2 12 3 0 6 -5 11 -11 11 -6 0 -9 7
-6 15 4 8 2 17 -4 21 -6 3 -8 12 -5 20 3 7 -1 17 -8 21 -18 11 -28 43 -14 43
9 0 9 3 0 12 -15 15 -16 31 0 22 7 -5 8 -3 4 5 -5 7 -15 10 -25 7 -11 -4 -10
-2 4 9 17 14 18 17 5 25 -8 5 -10 10 -4 10 6 0 10 10 9 23 -1 12 3 25 9 30 7
4 8 10 1 15 -16 11 -16 32 -1 26 8 -3 17 0 22 7 4 7 3 10 -3 6 -6 -4 -13 0
-17 8 -3 8 0 14 7 12 7 -1 13 5 13 13 1 8 2 21 3 28 0 7 6 10 12 6 8 -4 9 0 4
15 -4 15 -3 21 7 19 8 -2 12 4 10 16 -3 18 -2 18 14 5 10 -7 15 -9 11 -2 -4 6
-3 14 3 18 5 3 10 12 10 18 0 7 -4 6 -11 -3 -9 -13 -10 -13 -6 0 2 8 10 15 18
15 20 1 40 15 34 25 -3 4 2 10 10 14 8 3 15 13 15 23 0 15 2 16 10 3 8 -12 10
-12 16 3 3 9 10 14 15 11 5 -3 9 2 9 10 0 8 5 18 12 22 8 5 9 1 5 -12 -7 -18
-6 -18 6 -2 11 14 17 15 28 5 7 -7 11 -8 7 -4 -3 5 2 17 13 28 20 20 34 26 24
9 -3 -5 -1 -10 5 -10 6 0 13 7 16 15 4 8 10 15 16 15 5 0 7 -4 3 -9 -3 -5 -1
-13 5 -16 6 -4 9 -1 8 7 -2 8 6 13 19 12 12 0 20 3 17 8 -3 4 0 8 5 8 6 0 11
-6 11 -12 0 -7 5 -5 11 5 6 10 15 14 22 10 6 -4 20 -8 30 -8z m2181 -17 c-3
-4 0 -8 5 -8 6 0 11 6 11 14 0 9 8 12 25 8 14 -2 25 -8 25 -13 0 -5 5 -9 11
-9 5 0 7 6 3 13 -9 13 26 -11 38 -28 5 -6 8 -4 8 5 0 9 3 11 8 5 4 -5 16 -17
26 -25 18 -13 19 -13 12 0 -4 8 2 4 13 -9 12 -13 32 -23 46 -23 20 0 23 -3 15
-13 -8 -9 -8 -15 0 -20 5 -3 10 0 10 7 0 7 6 4 12 -7 14 -24 29 -35 40 -29 13
8 9 -11 -4 -25 -10 -11 -10 -13 0 -7 6 4 12 2 12 -4 0 -6 4 -9 9 -5 10 6 24
-11 28 -35 1 -8 7 -16 14 -19 8 -2 7 -6 -2 -12 -10 -6 -11 -9 -1 -9 6 0 12 -9
12 -21 0 -13 4 -18 13 -13 6 4 9 4 5 0 -4 -5 -3 -19 3 -33 6 -16 6 -22 -1 -18
-15 9 -12 -2 6 -19 8 -9 11 -16 6 -16 -16 0 -6 -52 13 -66 10 -8 15 -14 9 -14
-5 0 -14 -11 -21 -25 -6 -14 -8 -23 -3 -20 4 3 10 -2 14 -10 3 -10 -1 -15 -12
-15 -15 0 -15 -2 -2 -10 8 -5 10 -10 3 -10 -6 0 -10 -8 -9 -17 2 -10 -2 -21
-8 -25 -7 -5 -6 -8 3 -8 11 0 10 -4 -5 -16 -10 -8 -12 -13 -4 -9 12 5 12 4 -1
-7 -9 -7 -15 -21 -13 -31 2 -12 -2 -17 -11 -13 -7 2 -16 -2 -19 -10 -4 -10 -1
-13 7 -9 6 4 4 0 -5 -8 -10 -8 -15 -17 -11 -20 3 -4 -1 -7 -10 -7 -9 0 -19 -5
-23 -12 -5 -7 -3 -8 6 -3 9 5 11 4 6 -3 -4 -7 -13 -12 -21 -12 -8 0 -17 -5
-21 -12 -5 -7 -3 -8 6 -3 9 5 11 4 6 -4 -6 -9 -11 -9 -24 1 -12 10 -14 10 -8
0 5 -8 -2 -16 -23 -23 -17 -6 -31 -18 -31 -26 0 -8 -6 -13 -12 -10 -16 5 -50
-11 -44 -22 3 -4 -10 -7 -29 -6 -24 2 -32 -2 -28 -12 3 -7 0 -14 -6 -14 -6 -1
-16 -2 -23 -3 -7 0 -18 -12 -25 -26 -7 -14 -13 -19 -13 -12 0 10 -3 10 -14 0
-8 -7 -12 -16 -10 -20 3 -4 -5 -5 -17 -3 -18 4 -19 2 -7 -12 11 -14 11 -16 -3
-11 -11 4 -21 -2 -29 -18 -11 -20 -16 -22 -29 -12 -9 7 -13 9 -9 4 11 -13 -11
-48 -25 -39 -7 4 -6 -1 2 -11 8 -9 10 -16 5 -15 -20 3 -35 -2 -29 -10 3 -5 0
-13 -6 -16 -5 -4 -8 -14 -4 -22 5 -14 3 -14 -12 -2 -11 9 -14 10 -9 2 4 -7 3
-13 -2 -13 -6 0 -9 -8 -8 -17 0 -10 -5 -17 -12 -15 -7 1 -12 -5 -10 -15 2 -11
-2 -17 -10 -15 -8 1 -11 -2 -8 -7 4 -5 0 -12 -6 -15 -7 -3 -2 -3 12 0 23 6 23
6 7 -10 -9 -10 -17 -22 -17 -27 0 -6 -4 -8 -9 -5 -5 3 -7 -7 -6 -23 2 -23 -1
-28 -13 -23 -10 3 -13 1 -8 -7 4 -6 2 -19 -6 -28 -11 -14 -11 -16 2 -8 10 6 9
2 -3 -12 -13 -15 -15 -23 -7 -28 9 -6 9 -10 -1 -16 -16 -10 -18 -38 -4 -58 8
-11 7 -13 -4 -7 -10 7 -12 3 -6 -13 4 -13 2 -21 -6 -21 -7 0 -8 -5 -3 -12 5
-7 9 -20 8 -28 -1 -8 -2 -26 -3 -39 -1 -14 -6 -21 -14 -18 -8 3 -12 -4 -11
-22 0 -14 -4 -29 -10 -33 -8 -5 -7 -8 2 -8 6 0 12 -4 12 -10 0 -5 -7 -6 -17
-3 -11 4 -14 3 -9 -5 4 -7 2 -12 -3 -12 -6 0 -11 -5 -11 -11 0 -5 5 -7 12 -3
7 4 8 3 4 -4 -4 -6 -14 -8 -23 -5 -11 4 -14 3 -9 -5 4 -7 1 -12 -8 -12 -9 0
-16 -4 -16 -9 0 -5 -12 -16 -26 -26 -18 -11 -24 -13 -19 -4 4 8 -2 3 -15 -9
-18 -19 -24 -21 -31 -10 -7 11 -9 11 -9 -1 0 -7 -6 -11 -15 -7 -8 3 -15 0 -16
-7 0 -7 -2 -7 -5 -2 -2 6 -26 10 -54 9 -30 -1 -50 3 -50 10 0 6 -5 4 -10 -4
-6 -10 -10 -11 -10 -2 0 6 -7 12 -15 12 -9 0 -18 7 -21 15 -5 13 -9 13 -22 3
-9 -7 -13 -8 -10 -3 7 12 -17 37 -26 28 -3 -4 -6 1 -6 10 0 9 -5 19 -12 23 -7
5 -8 3 -3 -6 5 -8 4 -11 -3 -6 -6 4 -9 13 -5 21 3 10 -1 15 -12 15 -9 0 -13 5
-10 10 3 6 1 10 -6 10 -7 0 -9 3 -6 7 4 3 2 12 -4 20 -9 10 -8 13 1 13 10 0
10 3 0 15 -6 8 -8 20 -4 26 4 8 3 9 -4 5 -13 -8 -14 -6 -16 37 -1 17 3 27 12
27 10 0 9 4 -3 17 -16 16 -16 18 4 34 23 19 29 35 9 23 -9 -5 -9 -3 1 9 7 9
17 15 20 12 4 -2 8 2 8 10 0 8 -5 11 -11 8 -6 -4 -2 3 8 16 11 12 26 19 33 17
11 -4 11 -1 2 15 -8 17 -8 20 1 14 7 -5 22 4 37 21 13 16 22 23 18 17 -4 -9
-1 -11 9 -7 9 3 13 10 10 15 -3 5 4 9 16 9 12 0 19 4 16 9 -7 10 42 33 55 26
8 -6 14 16 10 38 -1 5 3 6 9 2 6 -3 8 -11 4 -16 -3 -6 3 -5 14 2 12 7 20 18
19 23 -1 6 6 10 16 9 13 -1 17 4 14 17 -3 14 0 16 16 12 16 -4 19 -1 14 11 -3
9 1 21 11 29 16 12 16 11 2 -6 -15 -19 -14 -19 13 -2 24 17 41 36 17 21 -21
-13 -9 10 17 32 14 13 21 23 15 23 -7 0 -6 8 1 25 7 15 18 23 26 20 11 -5 12
-3 1 10 -9 11 -9 15 -1 15 7 0 9 5 4 13 -11 18 -13 38 -2 31 10 -6 12 9 2 20
-9 9 -11 46 -2 41 4 -3 9 2 13 10 3 8 0 17 -6 21 -7 5 -8 2 -3 -6 6 -9 4 -11
-4 -5 -8 4 -9 11 -3 17 11 11 3 58 -10 58 -5 0 -6 5 -3 10 4 6 12 7 18 3 7 -3
3 4 -8 17 -11 13 -15 21 -9 17 6 -3 11 0 11 8 0 8 -3 12 -7 10 -3 -2 -11 5
-18 16 -9 15 -9 19 0 19 6 0 3 7 -8 16 -10 8 -13 13 -6 9 18 -9 14 9 -8 35
-21 25 -26 35 -11 26 5 -4 7 3 4 14 -3 11 -10 20 -16 20 -7 0 -7 4 1 12 16 16
15 28 -3 28 -9 0 -12 6 -8 17 5 12 3 14 -8 8 -11 -7 -12 -6 -2 7 7 8 10 18 6
21 -10 11 -10 57 0 57 5 0 4 6 -2 14 -8 10 -9 16 -1 21 5 3 10 15 10 26 0 10
4 19 9 19 4 0 8 15 8 33 -1 21 4 31 12 29 9 -2 11 3 8 13 -4 10 -1 15 10 15
13 0 14 3 5 12 -7 7 -12 17 -12 23 0 5 4 4 9 -3 6 -10 11 -9 22 4 12 16 12 17
-1 10 -8 -4 -5 1 8 10 12 9 22 23 22 30 0 13 13 19 34 15 5 -1 3 6 -5 15 -8
10 -9 15 -3 11 14 -8 37 16 26 27 -4 4 -2 6 3 5 16 -5 55 11 55 22 0 6 -5 7
-12 3 -7 -4 -8 -3 -4 4 4 8 15 8 31 2 14 -5 24 -6 24 -2 -5 28 2 35 16 16 13
-16 14 -17 9 -1 -4 10 -3 17 2 16 29 -5 55 2 48 14 -6 10 -4 10 7 0 19 -19 34
-16 18 4 -13 15 -12 15 9 4 12 -6 22 -8 22 -3 0 4 16 6 35 4 25 -3 35 0 35 9
0 11 2 11 9 -1 6 -8 7 -18 5 -22z m1423 -63 c0 -8 -4 -12 -9 -9 -5 3 -6 10 -3
15 9 13 12 11 12 -6z m-3952 -55 c3 -5 1 -10 -4 -10 -6 0 -11 5 -11 10 0 6 2
10 4 10 3 0 8 -4 11 -10z m-1115 -121 c0 -5 -4 -9 -8 -9 -5 0 -9 7 -9 15 0 8
4 12 9 9 4 -3 8 -9 8 -15z m2935 -139 c3 -5 1 -10 -4 -10 -6 0 -11 5 -11 10 0
6 2 10 4 10 3 0 8 -4 11 -10z m1135 -19 c0 -6 -4 -12 -8 -15 -5 -3 -9 1 -9 9
0 8 4 15 9 15 4 0 8 -4 8 -9z m-3068 -168 c-6 -2 -9 -10 -6 -15 4 -7 2 -8 -5
-4 -13 9 -5 26 12 25 9 0 8 -2 -1 -6z m3983 -173 c3 -5 1 -10 -4 -10 -6 0 -11
5 -11 10 0 6 2 10 4 10 3 0 8 -4 11 -10z m-3641 -156 c3 -8 2 -12 -4 -9 -6 3
-10 10 -10 16 0 14 7 11 14 -7z m2349 -9 c-3 -9 -8 -14 -10 -11 -3 3 -2 9 2
15 9 16 15 13 8 -4z m-1319 -113 c3 -5 -1 -9 -9 -9 -8 0 -12 4 -9 9 3 4 7 8 9
8 2 0 6 -4 9 -8z m-830 -40 c3 -5 -1 -9 -9 -9 -8 0 -15 4 -15 9 0 4 4 8 9 8 6
0 12 -4 15 -8z m546 -718 c0 -8 -5 -12 -10 -9 -6 4 -8 11 -5 16 9 14 15 11 15
-7z m1742 -516 c-7 -7 -12 -8 -12 -2 0 14 12 26 19 19 2 -3 -1 -11 -7 -17z
m-2512 -50 c0 -6 -6 -5 -15 2 -8 7 -15 14 -15 16 0 2 7 1 15 -2 8 -4 15 -11
15 -16z m160 -64 c0 -8 -19 -13 -24 -6 -3 5 1 9 9 9 8 0 15 -2 15 -3z m120
-60 c0 -8 -5 -12 -10 -9 -6 4 -8 11 -5 16 9 14 15 11 15 -7z m1297 -140 c-3
-3 -12 -4 -19 -1 -8 3 -5 6 6 6 11 1 17 -2 13 -5z m-453 -32 c2 -4 -4 -9 -15
-9 -11 -1 -17 2 -14 8 7 11 22 12 29 1z m136 -4 c0 -3 -9 -6 -20 -5 -11 1 -20
5 -20 9 0 3 9 6 20 5 11 -1 20 -5 20 -9z"/>
<path d="M3450 4118 c0 -4 4 -8 9 -8 6 0 12 4 15 8 3 5 -1 9 -9 9 -8 0 -15 -4
-15 -9z"/>
<path d="M3315 4100 c-3 -5 -1 -10 4 -10 6 0 11 5 11 10 0 6 -2 10 -4 10 -3 0
-8 -4 -11 -10z"/>
<path d="M2916 2382 c-3 -5 1 -9 9 -9 8 0 12 4 9 9 -3 4 -7 8 -9 8 -2 0 -6 -4
-9 -8z"/>
<path d="M1453 2667 c0 -8 6 -14 14 -14 9 0 10 4 2 14 -6 7 -12 13 -14 13 -1
0 -2 -6 -2 -13z"/>
<path d="M1285 1820 c3 -5 8 -10 11 -10 2 0 4 5 4 10 0 6 -5 10 -11 10 -5 0
-7 -4 -4 -10z"/>
<path d="M1800 966 c0 -2 8 -10 18 -17 15 -13 16 -12 3 4 -13 16 -21 21 -21
13z"/>
<path d="M2837 1133 c-10 -9 -9 -23 1 -23 5 0 9 7 9 15 0 17 -1 18 -10 8z"/>
<path d="M2435 5110 c-3 -6 1 -7 9 -4 18 7 21 14 7 14 -6 0 -13 -4 -16 -10z"/>
<path d="M3315 5001 c-3 -5 -2 -12 3 -15 5 -3 9 1 9 9 0 17 -3 19 -12 6z"/>
<path d="M3666 4848 c3 -5 10 -6 15 -3 13 9 11 12 -6 12 -8 0 -12 -4 -9 -9z"/>
<path d="M3830 4770 c0 -5 5 -10 11 -10 5 0 7 5 4 10 -3 6 -8 10 -11 10 -2 0
-4 -4 -4 -10z"/>
<path d="M4700 3941 c0 -6 4 -13 10 -16 6 -3 7 1 4 9 -7 18 -14 21 -14 7z"/>
<path d="M370 3899 c0 -5 5 -7 10 -4 6 3 10 8 10 11 0 2 -4 4 -10 4 -5 0 -10
-5 -10 -11z"/>
<path d="M3 2345 c0 -8 4 -15 9 -15 10 0 10 17 0 24 -5 3 -9 -1 -9 -9z"/>
<path d="M35 2120 c-3 -5 -1 -10 4 -10 6 0 11 5 11 10 0 6 -2 10 -4 10 -3 0
-8 -4 -11 -10z"/>
<path d="M4665 1140 c-3 -6 1 -7 9 -4 18 7 21 14 7 14 -6 0 -13 -4 -16 -10z"/>
<path d="M675 820 c3 -5 8 -10 11 -10 2 0 4 5 4 10 0 6 -5 10 -11 10 -5 0 -7
-4 -4 -10z"/>
<path d="M4345 749 c-4 -6 -5 -12 -2 -15 2 -3 7 2 10 11 7 17 1 20 -8 4z"/>
</g>
</svg>
