<svg xmlns="http://www.w3.org/2000/svg" width="97" height="97.04" viewBox="0 0 97 97.04"><title>资源 2</title><g id="图层_2" data-name="图层 2"><g id="图层_2-2" data-name="图层 2"><path d="M48.7,97A48.38,48.38,0,0,1,0,49C-.06,21.71,21.35,0,48.33,0a48.52,48.52,0,0,1,.37,97ZM74.18,27.22a8.34,8.34,0,0,0-5.32-8c-3.81-1.49-7-.34-9.82,2.44-6.77,6.59-14.69,6.5-21.24-.11-2.9-2.94-6.77-3.77-10.13-2.17a8.63,8.63,0,0,0-4.78,8.92c.38,3.6,3,6.4,6.92,7.33,9.47,2.26,13.85,10,10.84,19.08-1.44,4.36-.43,8,2.91,10.36A8.68,8.68,0,0,0,53.65,65c3.07-2.29,4-6,2.8-10.22A19.74,19.74,0,0,1,55.52,48c.54-6.28,4.68-10.65,11.06-12.28C71.6,34.44,74.16,31.58,74.18,27.22ZM27.57,46.31a8.71,8.71,0,0,0-8.29,6.56c-1,4,.8,7.84,4.86,9.84,5.4,2.65,8.31,6.85,8.65,12.87a6.45,6.45,0,0,0,.67,2.65,5,5,0,0,0,5.65,2.55,4.76,4.76,0,0,0,4.09-4.3,5,5,0,0,0-3.08-5.65c-3.22-1.44-5.49-3.64-5.6-7.23a18.23,18.23,0,0,1,1.19-5.89A8.63,8.63,0,0,0,27.57,46.31ZM77.91,56c0-4.73-2-7.66-5.56-9.16A8.52,8.52,0,0,0,61.53,58.26c2.37,6,1.1,9.43-4.62,12.55A5.39,5.39,0,0,0,54,77.33a5.17,5.17,0,0,0,5.62,3.53c2.62-.28,4.32-2,4.55-5.07.46-6.16,3.28-10.6,9-13.25A7.68,7.68,0,0,0,77.91,56Z"/></g></g></svg>